<mxfile host="app.diagrams.net" agent="Mozilla/5.0 (Windows NT 10.0; Win64; x64) AppleWebKit/537.36 (KHTML, like Gecko) Chrome/129.0.0.0 Safari/537.36" version="24.7.16">
  <diagram id="C5RBs43oDa-KdzZeNtuy" name="Page-1">
    <mxGraphModel dx="1434" dy="746" grid="1" gridSize="10" guides="1" tooltips="1" connect="1" arrows="1" fold="1" page="1" pageScale="1" pageWidth="827" pageHeight="1169" math="0" shadow="0">
      <root>
        <mxCell id="WIyWlLk6GJQsqaUBKTNV-0" />
        <mxCell id="WIyWlLk6GJQsqaUBKTNV-1" parent="WIyWlLk6GJQsqaUBKTNV-0" />
        <mxCell id="r-40f9kp0C2rI2xlfdiA-7" value="" style="edgeStyle=orthogonalEdgeStyle;rounded=0;orthogonalLoop=1;jettySize=auto;html=1;" edge="1" parent="WIyWlLk6GJQsqaUBKTNV-1" source="r-40f9kp0C2rI2xlfdiA-0" target="r-40f9kp0C2rI2xlfdiA-2">
          <mxGeometry relative="1" as="geometry" />
        </mxCell>
        <mxCell id="r-40f9kp0C2rI2xlfdiA-0" value="Start" style="rounded=0;whiteSpace=wrap;html=1;" vertex="1" parent="WIyWlLk6GJQsqaUBKTNV-1">
          <mxGeometry x="220" y="90" width="120" height="60" as="geometry" />
        </mxCell>
        <mxCell id="r-40f9kp0C2rI2xlfdiA-8" value="" style="edgeStyle=orthogonalEdgeStyle;rounded=0;orthogonalLoop=1;jettySize=auto;html=1;" edge="1" parent="WIyWlLk6GJQsqaUBKTNV-1" source="r-40f9kp0C2rI2xlfdiA-2" target="r-40f9kp0C2rI2xlfdiA-3">
          <mxGeometry relative="1" as="geometry" />
        </mxCell>
        <mxCell id="r-40f9kp0C2rI2xlfdiA-2" value="come up with a secret word" style="rounded=0;whiteSpace=wrap;html=1;" vertex="1" parent="WIyWlLk6GJQsqaUBKTNV-1">
          <mxGeometry x="220" y="190" width="120" height="60" as="geometry" />
        </mxCell>
        <mxCell id="r-40f9kp0C2rI2xlfdiA-9" value="" style="edgeStyle=orthogonalEdgeStyle;rounded=0;orthogonalLoop=1;jettySize=auto;html=1;" edge="1" parent="WIyWlLk6GJQsqaUBKTNV-1" source="r-40f9kp0C2rI2xlfdiA-3" target="r-40f9kp0C2rI2xlfdiA-4">
          <mxGeometry relative="1" as="geometry" />
        </mxCell>
        <mxCell id="r-40f9kp0C2rI2xlfdiA-3" value="show drawings and blanks to players" style="rounded=0;whiteSpace=wrap;html=1;" vertex="1" parent="WIyWlLk6GJQsqaUBKTNV-1">
          <mxGeometry x="220" y="290" width="120" height="60" as="geometry" />
        </mxCell>
        <mxCell id="r-40f9kp0C2rI2xlfdiA-10" style="edgeStyle=orthogonalEdgeStyle;rounded=0;orthogonalLoop=1;jettySize=auto;html=1;" edge="1" parent="WIyWlLk6GJQsqaUBKTNV-1" source="r-40f9kp0C2rI2xlfdiA-4" target="r-40f9kp0C2rI2xlfdiA-5">
          <mxGeometry relative="1" as="geometry" />
        </mxCell>
        <mxCell id="r-40f9kp0C2rI2xlfdiA-11" style="edgeStyle=orthogonalEdgeStyle;rounded=0;orthogonalLoop=1;jettySize=auto;html=1;entryX=0.5;entryY=0;entryDx=0;entryDy=0;" edge="1" parent="WIyWlLk6GJQsqaUBKTNV-1" source="r-40f9kp0C2rI2xlfdiA-4" target="r-40f9kp0C2rI2xlfdiA-6">
          <mxGeometry relative="1" as="geometry" />
        </mxCell>
        <mxCell id="r-40f9kp0C2rI2xlfdiA-4" value="Ask a player to guess a letter" style="rounded=0;whiteSpace=wrap;html=1;" vertex="1" parent="WIyWlLk6GJQsqaUBKTNV-1">
          <mxGeometry x="220" y="390" width="120" height="60" as="geometry" />
        </mxCell>
        <mxCell id="r-40f9kp0C2rI2xlfdiA-14" value="" style="edgeStyle=orthogonalEdgeStyle;rounded=0;orthogonalLoop=1;jettySize=auto;html=1;" edge="1" parent="WIyWlLk6GJQsqaUBKTNV-1" source="r-40f9kp0C2rI2xlfdiA-5" target="r-40f9kp0C2rI2xlfdiA-12">
          <mxGeometry relative="1" as="geometry" />
        </mxCell>
        <mxCell id="r-40f9kp0C2rI2xlfdiA-17" style="edgeStyle=orthogonalEdgeStyle;rounded=0;orthogonalLoop=1;jettySize=auto;html=1;entryX=0;entryY=0.5;entryDx=0;entryDy=0;" edge="1" parent="WIyWlLk6GJQsqaUBKTNV-1" source="r-40f9kp0C2rI2xlfdiA-5" target="r-40f9kp0C2rI2xlfdiA-3">
          <mxGeometry relative="1" as="geometry" />
        </mxCell>
        <mxCell id="r-40f9kp0C2rI2xlfdiA-5" value="Letter is in secret word" style="rounded=0;whiteSpace=wrap;html=1;" vertex="1" parent="WIyWlLk6GJQsqaUBKTNV-1">
          <mxGeometry x="140" y="500" width="120" height="60" as="geometry" />
        </mxCell>
        <mxCell id="r-40f9kp0C2rI2xlfdiA-15" value="" style="edgeStyle=orthogonalEdgeStyle;rounded=0;orthogonalLoop=1;jettySize=auto;html=1;" edge="1" parent="WIyWlLk6GJQsqaUBKTNV-1" source="r-40f9kp0C2rI2xlfdiA-6" target="r-40f9kp0C2rI2xlfdiA-13">
          <mxGeometry relative="1" as="geometry" />
        </mxCell>
        <mxCell id="r-40f9kp0C2rI2xlfdiA-16" style="edgeStyle=orthogonalEdgeStyle;rounded=0;orthogonalLoop=1;jettySize=auto;html=1;entryX=1;entryY=0.5;entryDx=0;entryDy=0;" edge="1" parent="WIyWlLk6GJQsqaUBKTNV-1" target="r-40f9kp0C2rI2xlfdiA-3">
          <mxGeometry relative="1" as="geometry">
            <mxPoint x="385" y="560" as="sourcePoint" />
            <mxPoint x="355" y="280" as="targetPoint" />
          </mxGeometry>
        </mxCell>
        <mxCell id="r-40f9kp0C2rI2xlfdiA-6" value="Letter is not in the secret word" style="rounded=0;whiteSpace=wrap;html=1;" vertex="1" parent="WIyWlLk6GJQsqaUBKTNV-1">
          <mxGeometry x="310" y="500" width="120" height="60" as="geometry" />
        </mxCell>
        <mxCell id="r-40f9kp0C2rI2xlfdiA-20" style="edgeStyle=orthogonalEdgeStyle;rounded=0;orthogonalLoop=1;jettySize=auto;html=1;" edge="1" parent="WIyWlLk6GJQsqaUBKTNV-1" source="r-40f9kp0C2rI2xlfdiA-12" target="r-40f9kp0C2rI2xlfdiA-18">
          <mxGeometry relative="1" as="geometry">
            <Array as="points">
              <mxPoint x="200" y="720" />
              <mxPoint x="300" y="720" />
            </Array>
          </mxGeometry>
        </mxCell>
        <mxCell id="r-40f9kp0C2rI2xlfdiA-12" value="Player guessed all letters and wins" style="rounded=0;whiteSpace=wrap;html=1;" vertex="1" parent="WIyWlLk6GJQsqaUBKTNV-1">
          <mxGeometry x="140" y="600" width="120" height="60" as="geometry" />
        </mxCell>
        <mxCell id="r-40f9kp0C2rI2xlfdiA-21" style="edgeStyle=orthogonalEdgeStyle;rounded=0;orthogonalLoop=1;jettySize=auto;html=1;entryX=0.75;entryY=0;entryDx=0;entryDy=0;" edge="1" parent="WIyWlLk6GJQsqaUBKTNV-1" source="r-40f9kp0C2rI2xlfdiA-13" target="r-40f9kp0C2rI2xlfdiA-18">
          <mxGeometry relative="1" as="geometry" />
        </mxCell>
        <mxCell id="r-40f9kp0C2rI2xlfdiA-13" value="Player ran out of guesses and looses" style="rounded=0;whiteSpace=wrap;html=1;" vertex="1" parent="WIyWlLk6GJQsqaUBKTNV-1">
          <mxGeometry x="310" y="600" width="120" height="60" as="geometry" />
        </mxCell>
        <mxCell id="r-40f9kp0C2rI2xlfdiA-23" style="edgeStyle=orthogonalEdgeStyle;rounded=0;orthogonalLoop=1;jettySize=auto;html=1;" edge="1" parent="WIyWlLk6GJQsqaUBKTNV-1" source="r-40f9kp0C2rI2xlfdiA-18" target="r-40f9kp0C2rI2xlfdiA-19">
          <mxGeometry relative="1" as="geometry" />
        </mxCell>
        <mxCell id="r-40f9kp0C2rI2xlfdiA-18" value="Ask player to play again" style="rounded=0;whiteSpace=wrap;html=1;" vertex="1" parent="WIyWlLk6GJQsqaUBKTNV-1">
          <mxGeometry x="240" y="760" width="120" height="60" as="geometry" />
        </mxCell>
        <mxCell id="r-40f9kp0C2rI2xlfdiA-19" value="End" style="rounded=0;whiteSpace=wrap;html=1;" vertex="1" parent="WIyWlLk6GJQsqaUBKTNV-1">
          <mxGeometry x="240" y="860" width="120" height="60" as="geometry" />
        </mxCell>
      </root>
    </mxGraphModel>
  </diagram>
</mxfile>
